<svg xmlns="http://www.w3.org/2000/svg" viewBox="0 0 800 600">
  <!-- Background gradient -->
  <defs>
    <linearGradient id="spaceGradient" x1="0%" y1="0%" x2="0%" y2="100%">
      <stop offset="0%" style="stop-color:#000033;stop-opacity:1" />
      <stop offset="50%" style="stop-color:#000066;stop-opacity:1" />
      <stop offset="100%" style="stop-color:#000044;stop-opacity:1" />
    </linearGradient>
    
    <!-- Star pattern -->
    <pattern id="starPattern" x="0" y="0" width="100" height="100" patternUnits="userSpaceOnUse">
      <circle cx="10" cy="10" r="0.8" fill="white" opacity="0.8" />
      <circle cx="30" cy="40" r="0.6" fill="white" opacity="0.6" />
      <circle cx="50" cy="20" r="1" fill="white" opacity="0.9" />
      <circle cx="70" cy="70" r="0.7" fill="white" opacity="0.7" />
      <circle cx="90" cy="90" r="0.9" fill="white" opacity="0.8" />
      <circle cx="20" cy="80" r="0.6" fill="white" opacity="0.6" />
      <circle cx="80" cy="30" r="0.8" fill="white" opacity="0.7" />
    </pattern>
    
    <!-- Nebula effect -->
    <radialGradient id="nebula1" cx="30%" cy="30%" r="50%" fx="30%" fy="30%">
      <stop offset="0%" style="stop-color:#4B0082;stop-opacity:0.3" />
      <stop offset="100%" style="stop-color:#000066;stop-opacity:0" />
    </radialGradient>
    
    <radialGradient id="nebula2" cx="70%" cy="60%" r="40%" fx="70%" fy="60%">
      <stop offset="0%" style="stop-color:#800080;stop-opacity:0.2" />
      <stop offset="100%" style="stop-color:#000066;stop-opacity:0" />
    </radialGradient>
  </defs>
  
  <!-- Base background -->
  <rect width="100%" height="100%" fill="url(#spaceGradient)" />
  
  <!-- Nebula effects -->
  <ellipse cx="240" cy="180" rx="300" ry="200" fill="url(#nebula1)" />
  <ellipse cx="560" cy="360" rx="250" ry="180" fill="url(#nebula2)" />
  
  <!-- Stars layer -->
  <rect width="100%" height="100%" fill="url(#starPattern)" />
  
  <!-- Large featured stars -->
  <circle cx="100" cy="150" r="1.2" fill="white" opacity="0.9" />
  <circle cx="700" cy="200" r="1.4" fill="white" opacity="0.9" />
  <circle cx="300" cy="400" r="1.3" fill="white" opacity="0.8" />
  <circle cx="500" cy="100" r="1.5" fill="white" opacity="0.9" />
  <circle cx="200" cy="500" r="1.1" fill="white" opacity="0.8" />
  
  <!-- Distant galaxies -->
  <circle cx="150" cy="250" r="2" fill="#4169E1" opacity="0.4" />
  <circle cx="650" cy="450" r="2.5" fill="#9370DB" opacity="0.3" />
  <circle cx="400" cy="150" r="2.2" fill="#483D8B" opacity="0.3" />
</svg>
